<svg id="Layer_1" data-name="Layer 1" xmlns="http://www.w3.org/2000/svg" viewBox="0 0 670 370"><defs><style>.cls-1,.cls-3{fill:#f72585;}.cls-2,.cls-7{fill:#7209b7;}.cls-3,.cls-6,.cls-7{fill-rule:evenodd;}.cls-4{fill:#b5179e;}.cls-5{fill:#329446;}.cls-6{fill:#4cc9f0;}.cls-8{fill:#fff;}.cls-9{fill:#fa0;}.cls-10,.cls-11{fill:none;stroke-miterlimit:10;stroke-width:4px;}.cls-10{stroke:#a7d094;}.cls-11{stroke:#fa0;}.cls-12{fill:#ffa690;}</style></defs><circle class="cls-1" cx="554.97" cy="135.24" r="92.62"/><circle class="cls-2" cx="342.58" cy="135.24" r="92.62"/><path class="cls-3" d="M103.39,3.82C102.6,2.71,103,.71,102.7,0c-.41.06-1,0-1,.35C102.59,1.08,102,4.15,103.39,3.82ZM141,24.34c-2.47.44-4.58-2.58-5.91-1C137.32,23.73,139.21,26.46,141,24.34Zm7,2.09c-2.08.45-4.13-1-5.22-.35C144,27.35,146.32,27.13,147.91,26.43ZM158,28.52c.41-1.49-2.75-1.4-2.79-.35C156.33,28.09,156.69,28.79,158,28.52ZM144.78,30.6c-.06,1.52,4.14,1.47,4.52.35C148.31,30,146.24,30.22,144.78,30.6Zm-25,.7c-.66.08-.77-.39-1.39-.35A1.71,1.71,0,0,1,118,32C118.86,32.05,119.69,32.06,119.74,31.3ZM69.66,36.52c-.18-1.23-2.78-1.84-3.48-1.39C67.49,35.35,68.34,37.4,69.66,36.52ZM66.88,58.09c.05-1.1-.9-1.2-1.74-1.4C64.93,58,66.07,58.84,66.88,58.09Zm150.94,15.3V72h-1.39C216.15,73.19,216.62,73.66,217.82,73.39Zm5.56,5.22a2.27,2.27,0,0,0-1.74-.35C221.31,79.54,223.35,79.64,223.38,78.61Zm11.13,26.08c0-.69,1-.44.7-1.39-.84.15-.76-.63-1.74-.34C233.3,104.05,233.9,104.38,234.51,104.69ZM19.92,115.48c1.06-.46,1.55-1.47,2.79-1.74-.39-1.54.59-1.73.69-2.79-1.82.85-2.89,2.45-4.17,3.83C19.62,114.86,19.77,115.17,19.92,115.48Zm6.61-1.39c-1.12.3-.72-.91-1.39-1-.32,1.65-2.31,1.64-2.09,3.83C25,116.72,25.22,114.87,26.53,114.09Zm-3.82,4.17c-.11.47-.5.66-.35,1.39h1C23.32,119,23.75,117.91,22.71,118.26ZM6.36,129a1.3,1.3,0,0,0,1.39-1.39C6.57,126.66,5,128.26,6.36,129Zm5.91,2.79c.21,2.26-4.23,6.48-.35,6.95C11.12,135.66,14.74,133.4,12.27,131.83Zm225.37,16.69c.92,1.07-.8,2.64.7,3.13C238.15,150.28,239.33,148.77,237.64,148.52Zm-.35,5.92c.22,1.57-.9,2.67.7,3.13C237.16,156.4,238.86,154.86,237.29,154.44ZM19.92,160a2.49,2.49,0,0,1,1,.7c-2.09-.24-1.93,3.26-3.48,2.43a9.18,9.18,0,0,0,0,4.18c.27.07.68,0,.69.34,1.94-1.3,5-1.48,7-2.78.89-2.39-.75-2.52-1-4.52C22.4,161.7,21,159.14,19.92,160Zm213.55,13.57c-.48.44-.54,1.7.35,1.74C233.92,174.5,234.56,173.81,233.47,173.57ZM71.74,203.48c-.41-1.67-.36-3.81-1.39-4.87.41,0,.79.62,1.05,0-.52,0-1.43-1.29-1.74-.35C69.73,199.31,68.78,203.24,71.74,203.48Zm-1.74.7c.77,1,.93,2.55,2.44,2.78a7.81,7.81,0,0,0-.7-3.13A2.29,2.29,0,0,0,70,204.18Zm-7.3,1.39a2,2,0,0,1-1.39-.35c-.45,1.07.33,2.26.7,3.48.5-1,1-2,0-2.78C62.28,205.84,62.69,205.91,62.7,205.57Zm11.13,3.82c-.41-1-.56-2.21-2.09-2.08A2.62,2.62,0,0,0,73.83,209.39ZM50.88,208H49.49c-.45,1.17,1.36,1.83,1.73,1C50.82,209,50.85,208.5,50.88,208Zm33,3.82c.69.23,1.48,1.2,1.73,0C85,211.6,84.17,210.63,83.92,211.83Zm-1.39,21.22c1.49-.48,1.62,2.19,2.43.35C84.32,233.3,83.24,231.91,82.53,233.05Zm15.65,0c.29.33,2.21.74,2.43,0C100,233.05,98.59,232.11,98.18,233.05Zm8,2.43c.84-.14.76.64,1.74.35C108.12,234.42,106.48,234.73,106.17,235.48Zm22.26,1.4c0,.94.58.7,0,1.39,2.06-1.12,4.63.26,5.57-1.05C131.62,237.76,131.25,236.6,128.43,236.88Zm7.66.69c2.38-.08,4.93,1,6.6-.35C140.93,236.68,137.41,236.6,136.09,237.57Zm-38.26.7c-.31,1.48,1.87,2.27,2.43,1.74C99.2,239.67,99.56,237.93,97.83,238.27ZM143.39,24.69c.41.06,1-.06,1,.35,6.1.74,2.32-.66,0-.35C144.74,23.88,142.06,24.49,143.39,24.69ZM159,230.42a2.32,2.32,0,0,0-.7.54C158.57,230.77,158.81,230.6,159,230.42Zm-6.26,5.06-.88.05C152.25,235.67,152.56,236,152.78,235.48Zm-1,0,0,.05h.13Zm86.6-98.09c-.41,0-1,.06-1.05-.34.11-7.32-3.09-18.41-4.52-26.44.35-1,1.23-1.55,1-3.13-1.85.39-1.8-.91-2.79-2.09-.19,1.35-2.23,1-2.78,0a1.72,1.72,0,0,1,.69-1.74c-.49-1.3-.87-1.8-.34-2.78-3.13-6.27-8.43-12.21-9-19.83-1.16-.79-2.33-1.44-1.73-3.13-1.41-.48-1.1.76-2.09.7-.48-1.52,1.35-.74,1-2.09-3.25.36-4.42-1.38-5.56-3.13-.73-4.84-7.3-4.5-8-9-.51-3.32,1.91-5.73,3.48-8.7-1.39.12-2.26.76-3.48,1C202,48.8,191.06,46,193.82,37.56c-2.21-.12-1.67,2.51-3.83,2.44-.81-.12-.33-1.52-1-1.74a2.4,2.4,0,0,1-.7,1c-1.58-.45-3.57-3.59-5.21-1.74,1.11.74,1,.51,2.08,0,1.45,2,4,2.94,5.22,5.22-1.7,1.19-4.06,1.73-5.56,3.13-.72-.67-2-.76-2.44-1.74-.16-1.09.94-.92,1-1.74a6,6,0,0,1-7.3-1c.31-.62.84-1,1-1.74-1.09.29-1.55,1.22-2.78,1.39-7.47-1.81-13.52-6.89-20.17-8.35.39.07.54.39.7.7-2.48,4.08-6,1.68-11.83,1.39A5.76,5.76,0,0,0,138.52,31c-1.3.33-1.59,1.65-3.13,1.74a3.16,3.16,0,0,1-1.74-3.48c1.57-.21,3.19.39,3.13-.69-1.43-.28-1.78.53-3.13.35.65-.62-.28-.89,0-2.09,2.92-.65,5.31-.11,8.35-.35-.22,0-.42-.05-.35-.35.21,0,.41,0,.35-.35-3.33.12-6.93-.3-10.44.7,1.1.06,1.18,1.14,1.05,2.44-.87-1.13-2.86,1-2.79-1.05.1-.72,1.54-.08,1.4-1-1.44-.12-3.42-1.86-2.79-.35-1.14-1.2-3.12-.48-4.52,0,.84,1.41,1.33,6.34,0,7.65-1.66-1.19-2.87-1-5.56-1.39-3.44,4.38-12.73,6.46-18.78,5.91,3.59-4.7,11.94-4.14,18.08-7a10,10,0,0,1-4.17-.7c.46-1.51,2.74-1.2,3.48-2.43-8.8,1.51-17.17,5.62-24.7,7.3-2.23.5-5.06.34-7,1.39.57.35.38,1.48.69,2.09-3.47,2.55-9,3-12.87,5.22,1.2,2.4,1.34,5.85,2.09,8.69H73.83a7.34,7.34,0,0,1-.7,2.44c1.06,0,2.29-.2,2.09,1,.82,0,1-.6,2.09-.34-.88,1.34.66.43,1,1-6.62,3.46-12.49,7.68-19.47,10.78C59,69.54,60.4,69.66,60.61,71c-6.07.45-7.27,7.14-7,12.88,2,1.06,3.5,2.64,5.22,3.13-1.82,1.17-2.64,0-4.87,0-1.77,1,.55,4.19-2.44,4.17,0-.35-.28-.41-.35-.7.62-.82,1.49-2.7.7-3.82-1.1-.17-1.23.63-2.44.35-1.06.69.25,1.61-1.39,1.73-.79-1.4-1.08-3.31-2.43-4.17-.65,1.59-.5,2.23-1.39,3.13-.71-.68-.73-2.05-2.09-2.09-1.86.22-2.72,1.45-4.17,2.09,1.06-2.43.86-3,1-5.91.63-.48,1.93-2.79,0-2.79-.87.64-1,2-2.08,2.44-4.6.93-5.28,3.63-9.4,4.87-2.82,4.36-2.29,9.5-5.21,13.22-.17.21-1.24.23-.35.69.64-1,1.12,1.17,1.39,1.74,1.33.6,2.17-1,2.44-.34,0,.94-.58.69,0,1.39a1.94,1.94,0,0,1,1.39.34c.09-1-.79-1.06-.7-2.08,1,.35,2.11.67,2.09,2.08-.41.06-1-.06-1.05.35,1.33,1.86-.6,4.77-1.39,6.26,1.81,1.67,3.14,3.82,5.22,5.22-1.19,1.94-1.57,4.69-3.48,5.91.48-1.78-.25-4.66-2.08-5.21-.48,1.1-.08,1.16,0,2.43-.6-1.12-3,1.16-1.39,1,.13.64,1-1.18,1,.7,1.12.43.26-1.13,1.39-.7.07.45,1,1.71.35,1.74-.94.51-2.33-1.79-2.78.7.79-.1,1.3.08,1.39.69-.51.64-2.23,2.24-.7,2.79-.32-1.48.57-1.75,1.39-2.09.33.84,1.4.92,1,2.44-.45,1.13-2.35,1.81-3.12.69A108,108,0,0,0,14,132.52c1.17.34,2.38-1.06,3.13,0-.65.39-1.68.41-1.39,1.74,2.74-.2,6.2-.39,6.61,2.44s-5.1,6.29-3.13,9.74c.8-2.8,1.52-6.28,4.17-4.53-1,3-1.33,5.78-2.78,7,.84-.68-.74-.65-1,.7-.43,1.93-.2,2.42-1.74,2.78.15,1.35.38,1.24-.35,2.09.52.06,1.28-.13,1.39.34.17,1.5-.94.45-1,1.05.47.92,2.25.52,1.74,2.43,2.06-3.28,7.52-2.49,11.82-2.78,2.17,2.27,6.92,2.39,10.09,1.74-.19.51-.52.88-.7,1.39,3.59,3.37,9.14,4.77,12.52,8.35-1,1.11-1.61,2.56-3.13,3.13-.06-.52.13-1.28-.35-1.39-.67.89.83,2.31,0,3.48-.67-.58-2.24.07-3.13.35.61-.71-.26-.69.35-1.4-1.24-.54-.21,1.19-1,1.05.16-1.09-.44-1.69-1-1.05-.88,1.67,2.87,2.9,3.83,2.79-.54,2.24-1.74,3.82-1.74,6.6-.91,1.18-2.85,1.33-2.78,3.48,3.35-.57,6.45,2,8.35-.69-1.42-.63-.44-2.29-1-3.13-.38,1-.72,2-1.74,2.43-1.64-1.64-2.14-9,1.74-8.35.71,2.55,8.22,2.23,5.22,5.22.54,2.6-1.86,4.41-2.44,7,4.42,2.18,1.15,8.46,1.74,11.48-1.23,4,2.33,9.31,2.79,12.17.44.49,1.7.15,1.73,1-.55.78-.36,1.44-1,1.39,1,.19,1,1.34,1.39,2.08-.51.81-1.1-.68-1,.7,1.72,1.65,2.27.61,4.17,1.39-.62-3.51-3.77-6.1-3.82-9-1.67-.07-2.25-1.23-2.09-3.13,1.58-.8,2-.59,3.83-1.05-1.39-.51-.49-.9-1.4-1-1.52-.25.28.69-.69.69s-1.53-1.9-1-2.08c.66.14.62,1,1.73.69,2.37-4-1.6-7.86-.69-11.47,4.16-.65,6.46,1.21,8.35,4.17-1.28,1-1.38.41-2.09,0-.38,2.07.2,3-1,4.17-1.12-.62-.88-1.55-.7-2.78-1.57-.18.27,3.06-2.09,2.09-.06,1,0,1.9,1,1.74-.4-1-.21-1.3.69-1.74.09,1.3.76,2,2.44,1.74,0-2.34.54-3.68,2.08-3.48.11-.69-.47-.69-.69-1.05a1.94,1.94,0,0,0,1.39-.34c.52,1.8,2.18,2.45,3.13,3.82-.71,4.76,3.2,5.67,4.17,10.09-.52.06-1.28-.13-1.39.35,2.2.08,1.78,2.67,1.39,3.82a24.36,24.36,0,0,0-2.78-3.13c-.58.46-.28,2.19-.7,3.13-1.28-1-3.06-2.67-2.43-4.52a1.79,1.79,0,0,1-1.39-2.08c-.78.14-1.11.74-1.74,1,1.49-.21,1.29,1.26,1.74,2.08h-1c.47,2.16,5,2,3.13,4.88-.11-.31-.7-1.77-1.05-.7,2,1.6.62,2.73,2.09,4.52-1.1.17-.79-1.07-2.09-.69,1.05,1,2.45,3.44,2.44,2.78,0-.16-.8-1.5-.35-1.74,2.15,4.79,3.5,11.58,10.43,13.22-1.9-3.32-6.13-4.31-7.3-8.35,1.35-.3,1.24.85,2.09,1,.57-1.86,2.34-.11,3.13-.69-3.43-3-.83-7.88-2.09-11.48.55,0,1.21,0,1-.7-1-1.37-2.77-4.72-1-6.6,3.69,4.18,9.09,6.67,12.52,11.13-.71.33-.75,1.33-.7,2.43.66,0,.74.27.35.7,5.86-.87,12.12,3.24,17,5.56.86.46-.62,1.05.35,1.39s5.59-.25,5.57,2.09c.59-1.32.57.76,1,.69,4.26.38,11.93,1.84,13.56,4.88.33-.94,1.45-.31,3.48-.35a10,10,0,0,0,6.61-2.09c-.18.84-2.28,1.54-.7,2.09.31-.51.52-1.11,1.4-1.05,1.88,1.83,4.46,3,6.6,4.53a28.22,28.22,0,0,0,7-.35c2.62-.29-.08.22,2.43-1.39-1.71-.52-2.58,2.09-3.44.39-3.72.18-6.51.1-7.69-3.18.27-.07.41-.29.35-.69,3.53.51,7-1.27,10.09-.7.26-1.18-1.28-.57-1.39-1.39,1.94-.12,2-.51,3.82-1a1.64,1.64,0,0,1-.34,1c1.63.42,1.74-1.36,2.43,0-.29-1.47,2.86-1.29,1.74-2.44.25.57-1.64.57-1.39,0,1.09,0,2.62-1.29,3.47-.34-.54.65-1.21-.36-1.39,1,2,0,2.69-1.1,3.83-1,.1-.94.13-2.34,1.39-1.39-1.41-.31-.92.85-.69,1,2.6-1,5.87-4.62,7.65-2.44-4.89,2.88-10.36,3.31-14.61,6.42,1.74-.81,3.59,1.87,5.56.54a6.91,6.91,0,0,0-3.13-1c4.45-1.7,9.09-3.2,13.22-5.22,1,.91,2.66,2,2.09,3.48,2.42-.8,1.73,1.51,3.13,1.74,1.25-1.25-2.22-2.28-.35-3.13-2.34,0-2.92-1.72-3.83-3.13,2.7-1.25-2,1.15-1-2.09,1.43-.36,1.93.15,2.78-1,.75.79-.45,1.53.7,2.09,1-1.62,3-2.27,3.48-3.48.66,1.22,2.14-.23,2.78-1.4-.46-.85-1.57,1.37-2.44,0a6.18,6.18,0,0,1,2.09-1.73c-.08.65.39.76.35,1.39a1.68,1.68,0,0,0,2.09-1.05c-1.18-.4-1.49.25-2.09-.34,1-.27.9-1.65,2.43-1.4.7.71.09.93-.34,1.4h2.08c-.11.81-1.21.64-1,1.73,1.31-.5.67,1,1.74.7,1.84-1.7,7.94-8.38,9.73-6.26.27-1.07-1.2-.42-.69-1.74,1.39.39,1.82.2,3.48.7.24-1.3-.6-1.5-.35-2.79,2.79-.57,2.5-4.22,5.22-4.87,1.06,1.49-1.11,3.67.34,4.87a7.37,7.37,0,0,1,2.09-5.91c.71.83-.72,1.62.7,1.74,4.22-2.31,7-8.67,10.43-12.87A2.27,2.27,0,0,1,222,191c.19.62.18,1.44.69,1.74.24-.84,2.77-1.38,1-2.09-.81.51.68,1.1-.7,1,.19-.62.18-1.45.7-1.74.47.11.66.49,1.39.35.78-1.88,1-8,2.78-10.44.79-1.06,2.38-.36,1-1.74a1.65,1.65,0,0,1,1.05.35c.1-.69-.47-.69-.7-1.05,1.51-1.51,1.29-4.74,3.13-5.91-.39-.07-.54-.38-.69-.7,3.83-8.92,4.06-20.26,4.52-33,.12.92.91,1.18,1.74,1.39C238.64,138.51,237.57,138.12,238.34,137.39ZM27.23,101.22a7.5,7.5,0,0,1,.34-3.13c1.3-.38,1,.86,2.09.69C29.62,100.37,29.11,101.48,27.23,101.22ZM22.7,133.57c1.3-1.37-2.35.63-2.08-1.4a9.77,9.77,0,0,0,4.17,0C24.46,133,24.18,133.88,22.7,133.57Zm11.83-16c-.92,0-2,.13-2.43-.35.22-1.84,1-4.68,2.78-3.83-.55-2.8,3.63-3.12,3.48-6.61-1.7-1.55-3.49-4.47-2.79-7.3.51-.54,1.78-.31,2.79-.35.4.86-.43,1.93-.35,2.78,0,.63,1-.6,1.39-.69,1.72,3-1,5.56,1,8.34C36.75,110.51,36.5,114.9,34.53,117.57Zm13.91-16.7c-1.25,1.1-2.63,3.38-3.13,2.78a28.19,28.19,0,0,1,2.78-5.22,6.44,6.44,0,0,1,2.79-.34C51.64,99.89,49.34,100.08,48.44,100.87Zm2.78,69.91a1.57,1.57,0,0,0,.35-1c1,.29.9-.49,1.74-.35C53.27,170.51,52.52,170.92,51.22,170.78Zm8.35,30.27c-1-.14-.68-1.64-1.39-2.09,0-1.23,1.15.74,1-.35C59.7,199.15,59.92,200.7,59.57,201.05Zm17,4.52c-2.38-.71-1.21-3.16-1.74-3.48C75.52,200.56,76.92,203.87,76.61,205.57Zm4.87-135c-3.16,1.24-7.51,1.29-9.74,3.48.71.82,2.35,2.09,1.39,3.47h1.74c-.74,1.08.7,1.92,0,2.79-5.58.21-8.81,2.77-12.86,4.52-1.3.13-.91-1.41-2.44-1,2.34-1.62,3-4.93,3.48-8.35-2.33-3.56,3.17-6.9,5.22-8,.46-.24-.18-.93.34-1.74.41.05.3.63.35,1,1.62-1.74,2.26-4.46,5.57-4.52,2.93-3,5.09-3.43,9.73-2.09C83.05,64.11,82.89,67.24,81.48,70.61Zm48.69,161.74c-.61-.08-.79-.59-.69-1.39.72-.15.92.24,1.39.35C130.74,231.77,130.26,231.86,130.17,232.35ZM143.74,231c1.47-.3,5.29-2.51,5.91-.34C147.11,229.93,145.83,231.48,143.74,231Zm8-203.49c-.92-.1-.9.73-1.05,1.4.41.51.3,1.55,1.39,1.39.7-.7-.11-1.66-.34-2.44.92.41,2-.67,2.08,0v1.05c-.41.05-1-.06-1,.34a2,2,0,0,1,1.39.35c-.44-1.6.63-1.68,1-2.43-.5-.19-1.79.4-1.73-.35.19,0,.39-.28,0-.35-.3,1.76-3.07-.83-3.48,1C150.86,27.93,151.44,26.45,151.74,27.47Zm21.91,6.26c5.54,1.59,1-1.62-2.09-2.08C172.48,32.56,172.52,33.41,173.65,33.73ZM46.35,76.52c-.76.51-.68,1.86-1.73,2.09-.45-1.4-.72.09-1.74,0,.25,2,.49,3.26,1.39,4.17,3.26,3.31,3.62-3.39,7-4.87-.78-1.74,3.36-4.49,3.47-7.65-3-2.94,2.11-4.11,1.39-7.65-1.75,1-2.24,4.31-4.17,3.13,1.63,1.92-2.67,3.46-3.48,5.21-.68-.47-2-.33-2.78-.69-.93.8-1.4,2.08-3.13,2.09.36,2.1-1.21,2.27-1.39,3.82C43.82,76,45.17,76.84,46.35,76.52ZM27.23,82.78c-1,2.91-4.17,5.57-4.18,8.35C24.05,88.18,27.7,86,27.23,82.78ZM238,144.35c.07-.27.29-.4.69-.35-.6-2.23,0-3.85-1.39-3.82,1.36.31-1.15,1.28,0,1.39C238.33,141,237.4,143.94,238,144.35Zm-8,36.17c-.27.08-.69,0-.7.35.77.24-1.38,3.4.7,2.09-1.38-.35,0-1.4.35-2.09C230.12,180.85,229.92,180.82,230,180.52Zm-2.09,7c-.52.06-1.28-.12-1.39.35,1.86-.08-1.4,1.56,0,2.09,1.94-1.81,1.69-4.3,3.48-6.27C227.73,184.13,228,185.23,227.9,187.48ZM67.81,205.05c.94-.19.4.56,1.5.87-.32-2.93-.47-6-.7-9C66.18,198.49,69.67,204,67.81,205.05Zm0,0a4.12,4.12,0,0,0-.59.17A1.37,1.37,0,0,0,67.81,205.05ZM54,204.18c0,1.13-1.2,1.12-1.74,1.74.89.55.54,2.16,2.43,2.43,1.22-1.47-.94-1.89-1-3.13.35,0,.41-.28.69-.35.66.85.62,2.4,2.44,2.09C56.88,205,55.15,204.89,54,204.18ZM64.79,217.4c-.1,1.22-1.3-.88-1.39.34,1.24.12-.69.6-.35,1.4-.44-.72-.56-1.77-1.74-1.74,0,1,.74,1.35,1,2.08h1.74C63.31,218,65.74,217.93,64.79,217.4ZM165,231.66c.41.05,1-.06,1,.35-.19,0-.39.28,0,.34.38-.78,2.19-.13,3.14-.34,0-.89-.64-1.22-1-1.75C167.63,232,165.9,230.38,165,231.66Zm-59.82,2.78c-.19,0-.39-.28,0-.35s.69,0,.7-.34c-1,.31-2.44.1-3.13.69C103,234.77,104.91,235.18,105.13,234.44Z"/><circle class="cls-4" cx="141.15" cy="135.24" r="86.91"/><g id="Grime_Vector_Pack_04" data-name="Grime Vector Pack 04"><path class="cls-5" d="M420.73,228c0,7.48-3.61,13.72-19.07,13.72a65.65,65.65,0,0,1-41.77-15.22c-14.43-11.47-25.26-35.16-30.67-50.88,0,21,2.06,40.66,2.06,55.62,0,7.24-3.87,10.48-10.06,10.48-9.53,0-22.42-8-23.46-16-2.57-20-3.6-47.64-3.6-75.83,0-26.19.77-52.88,1.8-74.08-10.83-2.49-24-15-24-22.2,0-6.23,32.49-14.46,68.84-14.46,33.51,0,68.57,9.47,68.57,48.14,0,45.14-36.09,68.34-44.08,72.08.51,5.74,4.38,27.93,13.92,39.91,20.62,25.69,40.21,20.95,41.5,27.43ZM334.11,72.34c-2.32,23-3.61,44.15-4.12,73.08,13.92-5.49,48.46-30.18,49.75-62.6C379.74,70.84,351.9,72.34,334.11,72.34Z"/><path class="cls-6" d="M261.76,53.67c5.88,3.71,12.53-1.62,13.14-6.86-.95-10.7-15-9.47-16.13-.6C258.54,48.07,259.41,52.18,261.76,53.67ZM315.5,72.46a2.43,2.43,0,0,0,1.79-.59A1,1,0,0,0,315.5,72.46Zm-9.26,2.09c-2.34-.06-3,1.6-4.78,2.09C303.14,77.15,305.76,76.21,306.24,74.55ZM241.43,88.86c.65,1,1.76,1.62,3.58,1.49C246.27,88.73,241.8,86.05,241.43,88.86ZM343,120.15a4.7,4.7,0,0,0-3.59-.89c-1.06,3-3.86,5.48-4.77,7.75-1.32,3.28-1.67,10.31.3,12.22C342.14,136.69,343.41,128.49,343,120.15Zm-35.25,7.75c1.55.2,1.84-.73,3-1.49v-2.08C307.23,120.33,303.57,127.37,307.73,127.9Zm-49,29.81c.23-.13.61-1.73-.6-1.79C258.34,156.54,257.67,158,258.75,157.71Zm15.53-.3v-.89c-.84.24-.77-.42-1.49-.3C272.56,157.38,273.78,157.88,274.28,157.41ZM247.7,178.28c.35-.05.85.05.9-.3.11-2.58.29-5.23-1.79-6.86,1.17-.27.75,1,2.09.6,0-1.8-1.19-2.58-2.69-2.09-.24-1.35-1.8-1.38-1.2-3.57h-.89a70.6,70.6,0,0,0,4.18,23.24C251.94,188,247.82,181.55,247.7,178.28Zm158.9-4.48c-.75,0-.93.47-1.5.6-.06.57.34.66.3,1.19h1.2A1.49,1.49,0,0,0,406.6,173.8Zm6.87,10.14a1.1,1.1,0,0,0,0,1.49h1.19C414.89,184.31,414.32,184,413.47,183.94ZM251.58,194.07c.27-1.64-1.14-3.16-1.79-4.77,0,.45-.72.28-1.19.3,1.34,2.83,1.25,7.1,3.28,9.24,1.14,6.42,6.18,11.52,9,17.29,2.38,1.61,3.5,4.46,6,6-.32-2.46-2.6-3-2.69-5.66C258.19,210.73,256.13,201.17,251.58,194.07Zm133.21-4.17c-1-.71-2.82-.18-2.68,1.19C382.83,192.58,385,191.8,384.79,189.9Zm40.92,18.48a6.89,6.89,0,0,0,5.68-1.49C429.8,205.82,426.82,207.14,425.71,208.38Zm-56.15,28c.08.63,1.52,1.43,1.79.89C370.62,237.13,370.72,236.14,369.56,236.4ZM343,239.68c1.26,1.09,2.82-.9,1.79-2.09C343.33,237.45,343.35,238.76,343,239.68ZM444.23,144.6c5.29-6.93,2-17.65.3-26.83-1.25-6.69-4.29-13-5.38-18.48-.49-.8-1.63-1-2.09-1.79-3.56-13.44-10.74-23.26-19.41-31.59-1.93.38-2.67.1-4.18.89-.27-.53-.84-.76-.6-1.79-1.37.14-2.71.63-2.69-1.19a42.12,42.12,0,0,1,4.78.6c-.69-1-1-.76-.6-2.39C401.7,48.33,381.6,38.68,360.3,36.4c-9.09-2-18.53-1.43-27.48-.3-3.72.47-7,3-11.05,2.39-7.81,3.22-16.46,5.62-22.7,10.43-.81,0-.6-.5-1.19,0-3.79,3.07-8.75,5-11.95,8.64C279,61.78,274.1,68,268,73.06c-.18,1,.56.92,0,1.49-3.67,1.57-3.74,5-5.67,8,.77.12.86.93,1.19,1.49-3.56,3.83-3.11,12.8-9.26,13.11,3.18,3.58-.2,8.31-2.69,11,1.11,1.32-.42,2.55-.89,3.28.36,2.33-1.06,3.86-.3,5.66-1.72,4.09-5.77,5.88-4.78,10.44-.91.21-1.09-.31-1.79-.3a1.65,1.65,0,0,1-1.2,1.19c-.78,5.6-.41,12.89-.3,20,.06,3.31,1,6.29,1.2,9.24.17,2.75-1.11,6.12,1.49,7.75.85,0-.36-2,.9-1.49a1.9,1.9,0,0,1,1.19,1.79c.13,1.31-1.43,1-.89,2.68,2.45.36,2.78-2.46,5.07-3.58a2.15,2.15,0,0,1,0-1.79c.93-1,1.73-.24,2.39-1.49-1.28.33-1.38-.22-2.09-.29,1-2.12,1.87-4.8,4.48-4.47.27-1.41-1.65-.28-.89-1.2.2.83,1-1.36,0-.29-.22-.93,1.77-2.2,3.28-2.39-.3-.29-.6-.59-.89-.89,1.65-4.14-3.4-11.39.6-13.71,0-6.59-1.73-10.88-.3-18.19-.08-1-1.54-.65-1.5-1.78.29-.91,1.46-.94,1.5-2.09,1.65-4.63,1.48-8.64,2.09-13.12.63-4.66,4.93-7.88,4.18-13.11,2-1.25,3-4.54,3-6.85,2.23.55,4.88-.29,5.67-2.09-.19-1.4-1.4-1.79-1.49-3.28,2.78-5.37,8.1-8.21,10.75-13.71,1.88.29,1.85-1.34,2.69-2.09A85.31,85.31,0,0,1,340,45.94c.47.43,1,.75,1.2,1.49a52,52,0,0,0,5.67,1.19c2.57,2.73,7.63,2.82,11.35,4.47,5,2.24,10.73,5.22,15.83,7.16,7.19,2.73,15.23,5.33,20.31,9.83,5.8,5.14,7.39,12.83,10.75,20,1.36,2.88,3,5.33,4.19,8.35a9,9,0,0,1-3.89-3.88c-.91.22-.88-.51-1.79-.3a12.29,12.29,0,0,0-6.87-4.77c-1.88-3.06-6.32-3.88-9.56-5.36-2.52-1.16-4.38-4.43-7.17-4.47,0,1.75,1.93,1.69,2.39,1.49.15.94-.91.67-.59,1.79,1.17,1.73,2.84,2.31,4.18,3.87.62.73.75,2.07,1.49,3,2.69,3.3,7.27,5.14,9.86,8.35,1.41,1.75,2.18,3.88,3.88,5.36,1.3,1.14,2.94,1.41,4.18,2.39,2.47,1.94,4,5.77,6.57,7.45a25.57,25.57,0,0,0,8.66,8.94c.66,1.53,1.25,3.39.3,5.07-3.08-1.7-3.95-5.6-6.57-7.75-2.93-5.82-8.63-8.88-12.84-13.41-.71,0-.88-.52-1.79-.3-5.14-5.11-12.45-9.63-20.91-10.44,2.92,4,7.84,6.09,11.95,9,.17,2.7,2.78,3,4.78,3.87.06.57-.34.66-.3,1.19,7.71,6.71,12.95,15.89,20,23.25,1.23,3.81,6.88,10.2,6.87,14.61,0,1.91-1.84,4.13-2.39,6.56a42.13,42.13,0,0,0-.6,4.76c-.21,2-.76,3.7-.9,5.37-.31,3.67,1.67,7.23,1.5,10.73-.42,8.46-6.54,13.55-8.66,19.37-5.5,4-8.67,10.23-14.94,13.42-.11,1-.87,1.31-1.19,2.08-6.6,2.45-10.22,7.38-18.82,7.16a8.56,8.56,0,0,1-3.28,2.68c-3.11-.77-5.78,1.49-7.47,2.09-2.46.87-7.4.59-9.86.89-10.17,1.22-22.8-.85-32-3.28-2.46-.65-5.14-2.35-6.86-3-3.95-1.43-7.06-.5-8.37-3.87-1.07.11-1.09.8-2.09.3A61.62,61.62,0,0,0,294.59,206c-3.3-6.34-10.44-8.85-13.74-15.21-7-3.95-9.46-12.41-14.93-17.88-1.6,1.62,1.75,5.43-.6,7.45a26.26,26.26,0,0,1,1.8,12.52c2.33,1,3.55,4.91.59,6-.14,2.34,2.54,5.38,2.09,8,1.75.49,2.47-.09,3-1.49,1.21,1.53,1.23,4.38,2.09,6.26,1.62.32,1.29-1.29,2.69-1.19a4.67,4.67,0,0,0,2.69,1.79c-.62,2.21,1.46,1.72,2.09,2.68a2.11,2.11,0,0,0-.9.59c2-1,1.75,1.61,2.39,2.39,1.33,1.62,4.8,2.68,4.18,5.66,2.3-.6,1.64-2.09,3-2.68,1.17,2.12,2.24,1.42,4.48,3.28.47-1.13,2-2.76,1.79-3.58,0,1.31-1.46-.31-1.49-.89,1.34-2.89.2-5.86.59-8.35,2.48,1.31,2.84,4.72,4.78,6.56-.21,2-2,3.22-2.09,5.66,1.37,1.33,3.29,2.63,5.68,2.09,2.74,1.54,3.12,5.43,4.48,8.34a7.94,7.94,0,0,1,3,.6,2.56,2.56,0,0,0,.29,1.79c3.29.41,4.18-2.19,7.17-1.19,4.68-4.6,11.55-1.76,17.92-2.69.34-2.32,2-1.72,3.88-2.68.58.95-.17,1.5.3,2.68.41.59,1.8.19,1.8,1.2,2-.78,4.42-2.48,2.38-3.28,2.48-.71,3.92-1.55,6.28-1.79.44,1.31,1.43.91.89,2.68a52.64,52.64,0,0,0,10.46-1.19c.47.53.08,1.9.89,2.09,2,.85,2.46-1.76,5.08-1.2.49.58.52,2.5-.3,2.69,1.78,1.23,2.93-.3,5.38,0a11.5,11.5,0,0,1,2.09-1.2c6.56-.25,9.81-4.23,14-6.55a26.68,26.68,0,0,0,4.48-2.69c9.17-7.88,16.38-18.64,24.79-27.12,1.36-3.31,4.13-5.22,6.27-7.75.88.19,1.21,1.92,2.09,1.19,2.35-1.45.27-7.63,3.88-7.15,3,.39,1.77,5.42,2.09,8.64.19,1.83,1.2,3.35,1.2,5.07,0,2.41-1.22,4.21.3,5.37,2.81-1.52,3.61-5.44,4.18-8.35,1.52-7.86,1.16-17.26,1.79-25.34.06-.75.59-1.65.6-2.38,0-1.65-.89-3.12-.9-4.77C441.5,155.17,447.25,150.41,444.23,144.6Zm-172,56.63c-1.06-.16-.73,1.05-1.79.89-.8-.68-.58-1.5-.9-2.09.52-.38,1.69.19,2.69-.29A1.84,1.84,0,0,0,272.19,201.23Zm24.49,9.83c-.62-.17-.85-.74-1.79-.59-.07-.53.3-1.5-.59-1.19,1-1-.81-.72-.6-1.79,1.07-.18,1.44.34,2.09.59C295.11,209.29,296.92,208.91,296.68,211.06ZM325.06,229c-1.69-4.82,4.48-.94,0,0Zm5.67,0c0-.43,0-.85-.3-.9.08-.7,1.31-.17,1.5,0C331.67,228.49,331.48,229,330.73,229Zm-69.29-60.21h1.2c-.07-.56.33-.66.29-1.19a1.4,1.4,0,0,1-.89-.3c-.09.58.4.59.6.89C262.45,168.55,261.48,168.19,261.44,168.74Zm40.32,78.69a11.6,11.6,0,0,1-2.09-.6c-6.24-5-13.42-7.21-18.52-13.11-5.45-1.43-6.81-8.48-12.54-8.65,2.34,2.9,4.24,6.46,7.17,8.65.77.57,1.85.56,2.69,1.19,1.53,1.14,2.62,3.05,4.18,4.17.85.62,2.06,1.22,3,1.79,5.22,3.23,11.82,7.75,17.62,8.94.32,0,.76-.14.3-.3A16.21,16.21,0,0,1,301.76,247.43Zm5.38,2.68c-1.18.48-2-.59-2.39.6,2.89,0,5.51,2.59,9.26,2.68C313.17,250.84,308.87,251.76,307.14,250.11Z"/><path class="cls-7" d="M474.15,53.67c5.88,3.71,12.53-1.62,13.14-6.86-1-10.7-15-9.47-16.13-.6C470.93,48.07,471.8,52.18,474.15,53.67Zm53.74,18.79a2.43,2.43,0,0,0,1.79-.59A1,1,0,0,0,527.89,72.46Zm-9.26,2.09c-2.34-.06-3,1.6-4.78,2.09C515.53,77.15,518.14,76.21,518.63,74.55ZM453.82,88.86c.65,1,1.75,1.62,3.58,1.49C458.65,88.73,454.18,86.05,453.82,88.86Zm101.55,31.29a4.7,4.7,0,0,0-3.59-.89c-1.06,3-3.87,5.48-4.78,7.75-1.31,3.28-1.66,10.31.31,12.22C554.53,136.69,555.79,128.49,555.37,120.15Zm-35.25,7.75c1.55.2,1.84-.73,3-1.49v-2.08C519.62,120.33,516,127.37,520.12,127.9Zm-49,29.81c.22-.13.61-1.73-.6-1.79C470.72,156.54,470.06,158,471.14,157.71Zm15.53-.3v-.89c-.84.24-.77-.42-1.49-.3C485,157.38,486.17,157.88,486.67,157.41Zm-26.58,20.87c.35-.05.85.05.9-.3.11-2.58.29-5.23-1.8-6.86,1.18-.27.76,1,2.09.6,0-1.8-1.18-2.58-2.68-2.09-.24-1.35-1.8-1.38-1.2-3.57h-.89a70.34,70.34,0,0,0,4.18,23.24C464.33,188,460.21,181.55,460.09,178.28ZM619,173.8c-.75,0-.93.47-1.5.6-.07.57.34.66.3,1.19H619A1.49,1.49,0,0,0,619,173.8Zm6.86,10.14a1.12,1.12,0,0,0,0,1.49h1.2C627.27,184.31,626.71,184,625.85,183.94ZM464,194.07c.27-1.64-1.14-3.16-1.79-4.77-.05.45-.72.28-1.19.3,1.34,2.83,1.24,7.1,3.28,9.24,1.14,6.42,6.18,11.52,9,17.29,2.37,1.61,3.5,4.46,6,6-.33-2.46-2.6-3-2.69-5.66C470.58,210.73,468.52,201.17,464,194.07Zm133.21-4.17c-1-.71-2.83-.18-2.69,1.19C595.22,192.58,597.39,191.8,597.18,189.9Zm40.92,18.48a6.9,6.9,0,0,0,5.68-1.49C642.19,205.82,639.21,207.14,638.1,208.38ZM582,236.4c.08.63,1.52,1.43,1.79.89C583,237.13,583.1,236.14,582,236.4Zm-26.58,3.28c1.26,1.09,2.82-.9,1.79-2.09C555.72,237.45,555.74,238.76,555.37,239.68ZM656.62,144.6c5.28-6.93,2-17.65.3-26.83-1.25-6.69-4.29-13-5.38-18.48-.49-.8-1.63-1-2.09-1.79C645.89,84.06,638.71,74.24,630,65.91c-1.93.38-2.67.1-4.19.89-.26-.53-.83-.76-.59-1.79-1.37.14-2.71.63-2.69-1.19a42.12,42.12,0,0,1,4.78.6c-.69-1-1-.76-.6-2.39C614.09,48.33,594,38.68,572.69,36.4c-9.09-2-18.53-1.43-27.48-.3-3.72.47-7,3-11.05,2.39-7.81,3.22-16.46,5.62-22.7,10.43-.81,0-.6-.5-1.19,0-3.79,3.07-8.75,5-11.95,8.64C491.4,61.78,486.49,68,480.4,73.06c-.18,1,.56.92,0,1.49-3.67,1.57-3.74,5-5.68,8,.78.12.87.93,1.2,1.49-3.56,3.83-3.11,12.8-9.26,13.11,3.18,3.58-.2,8.31-2.69,11,1.11,1.32-.42,2.55-.89,3.28.36,2.33-1.07,3.86-.3,5.66-1.72,4.09-5.77,5.88-4.78,10.44-.91.21-1.09-.31-1.79-.3a1.65,1.65,0,0,1-1.2,1.19c-.78,5.6-.41,12.89-.3,20,.06,3.31,1,6.29,1.2,9.24.17,2.75-1.11,6.12,1.49,7.75.85,0-.36-2,.9-1.49a1.9,1.9,0,0,1,1.19,1.79c.12,1.31-1.43,1-.89,2.68,2.45.36,2.78-2.46,5.07-3.58a2.15,2.15,0,0,1,0-1.79c.93-1,1.73-.24,2.39-1.49-1.28.33-1.39-.22-2.09-.29,1-2.12,1.86-4.8,4.48-4.47.27-1.41-1.66-.28-.89-1.2.2.83,1-1.36,0-.29-.22-.93,1.77-2.2,3.28-2.39l-.89-.89c1.65-4.14-3.4-11.39.6-13.71,0-6.59-1.73-10.88-.31-18.19-.07-1-1.53-.65-1.49-1.78.28-.91,1.45-.94,1.49-2.09,1.66-4.63,1.49-8.64,2.1-13.12.63-4.66,4.93-7.88,4.18-13.11,2-1.25,3-4.54,3-6.85,2.23.55,4.88-.29,5.67-2.09-.19-1.4-1.4-1.79-1.5-3.28,2.79-5.37,8.11-8.21,10.76-13.71,1.88.29,1.85-1.34,2.69-2.09a85.31,85.31,0,0,1,55.25-16.09c.47.43,1,.75,1.2,1.49a52,52,0,0,0,5.67,1.19c2.57,2.73,7.63,2.82,11.35,4.47,5,2.24,10.73,5.22,15.83,7.16,7.19,2.73,15.22,5.33,20.31,9.83,5.8,5.14,7.39,12.83,10.75,20,1.36,2.88,3,5.33,4.19,8.35a9,9,0,0,1-3.89-3.88c-.91.22-.88-.51-1.79-.3a12.29,12.29,0,0,0-6.87-4.77c-1.88-3.06-6.32-3.88-9.56-5.36-2.53-1.16-4.38-4.43-7.17-4.47,0,1.75,1.93,1.69,2.39,1.49.14.94-.91.67-.59,1.79,1.16,1.73,2.84,2.31,4.18,3.87.62.73.75,2.07,1.49,3,2.69,3.3,7.27,5.14,9.86,8.35,1.4,1.75,2.18,3.88,3.88,5.36,1.3,1.14,2.94,1.41,4.18,2.39,2.47,1.94,4,5.77,6.57,7.45a25.57,25.57,0,0,0,8.66,8.94c.66,1.53,1.25,3.39.3,5.07-3.08-1.7-4-5.6-6.57-7.75-2.93-5.82-8.63-8.88-12.84-13.41-.71,0-.88-.52-1.79-.3-5.14-5.11-12.45-9.63-20.91-10.44,2.92,4,7.84,6.09,11.94,9,.18,2.7,2.79,3,4.78,3.87.07.57-.33.66-.3,1.19,7.72,6.71,13,15.89,20,23.25,1.22,3.81,6.88,10.2,6.87,14.61,0,1.91-1.85,4.13-2.39,6.56a42.13,42.13,0,0,0-.6,4.76c-.22,2-.76,3.7-.9,5.37-.31,3.67,1.67,7.23,1.5,10.73-.42,8.46-6.54,13.55-8.67,19.37-5.49,4-8.66,10.23-14.93,13.42-.11,1-.87,1.31-1.19,2.08-6.6,2.45-10.22,7.38-18.82,7.16a8.59,8.59,0,0,1-3.29,2.68c-3.1-.77-5.77,1.49-7.46,2.09-2.46.87-7.4.59-9.86.89-10.17,1.22-22.8-.85-32-3.28-2.46-.65-5.14-2.35-6.87-3-3.94-1.43-7.05-.5-8.36-3.87-1.07.11-1.09.8-2.09.3A61.62,61.62,0,0,0,507,206c-3.31-6.34-10.44-8.85-13.74-15.21-7-3.95-9.46-12.41-14.93-17.88-1.6,1.62,1.75,5.43-.6,7.45a26.38,26.38,0,0,1,1.8,12.52c2.33,1,3.55,4.91.59,6-.14,2.34,2.54,5.38,2.09,8,1.75.49,2.47-.09,3-1.49,1.21,1.53,1.23,4.38,2.09,6.26,1.62.32,1.29-1.29,2.69-1.19a4.64,4.64,0,0,0,2.69,1.79c-.63,2.21,1.46,1.72,2.09,2.68a2.11,2.11,0,0,0-.9.59c2-1,1.75,1.61,2.39,2.39,1.33,1.62,4.8,2.68,4.18,5.66,2.3-.6,1.64-2.09,3-2.68,1.17,2.12,2.24,1.42,4.48,3.28.47-1.13,2-2.76,1.79-3.58,0,1.31-1.46-.31-1.49-.89,1.34-2.89.19-5.86.59-8.35,2.48,1.31,2.84,4.72,4.78,6.56-.21,2-2,3.22-2.09,5.66,1.37,1.33,3.29,2.63,5.68,2.09,2.74,1.54,3.12,5.43,4.48,8.34a7.85,7.85,0,0,1,3,.6,2.55,2.55,0,0,0,.3,1.79c3.28.41,4.18-2.19,7.17-1.19,4.67-4.6,11.55-1.76,17.92-2.69.34-2.32,2-1.72,3.88-2.68.58.95-.17,1.5.3,2.68.41.59,1.8.19,1.79,1.2,2-.78,4.43-2.48,2.39-3.28,2.48-.71,3.92-1.55,6.28-1.79.44,1.31,1.43.91.89,2.68A52.64,52.64,0,0,0,576,230.14c.47.53.08,1.9.89,2.09,2,.85,2.46-1.76,5.08-1.2.48.58.51,2.5-.3,2.69,1.78,1.23,2.93-.3,5.38,0a11.5,11.5,0,0,1,2.09-1.2c6.56-.25,9.81-4.23,14-6.55a25.9,25.9,0,0,0,4.48-2.69c9.18-7.88,16.39-18.64,24.8-27.12,1.36-3.31,4.13-5.22,6.27-7.75.88.19,1.21,1.92,2.09,1.19,2.34-1.45.26-7.63,3.88-7.15,3,.39,1.77,5.42,2.09,8.64.19,1.83,1.2,3.35,1.2,5.07,0,2.41-1.22,4.21.3,5.37,2.81-1.52,3.61-5.44,4.18-8.35,1.52-7.86,1.16-17.26,1.79-25.34.06-.75.59-1.65.59-2.38,0-1.65-.88-3.12-.89-4.77C653.89,155.17,659.64,150.41,656.62,144.6Zm-172,56.63c-1.06-.16-.73,1.05-1.79.89-.81-.68-.58-1.5-.9-2.09.51-.38,1.69.19,2.69-.29A1.84,1.84,0,0,0,484.58,201.23Zm24.49,9.83c-.62-.17-.85-.74-1.79-.59-.07-.53.3-1.5-.6-1.19,1-1-.8-.72-.59-1.79,1.07-.18,1.44.34,2.09.59C507.5,209.29,509.31,208.91,509.07,211.06ZM537.45,229c-1.69-4.82,4.48-.94,0,0Zm5.67,0c0-.43,0-.85-.3-.9.08-.7,1.31-.17,1.5,0C544.06,228.49,543.87,229,543.12,229Zm-69.29-60.21H475c-.06-.56.34-.66.3-1.19a1.4,1.4,0,0,1-.89-.3c-.09.58.4.59.59.89C474.84,168.55,473.87,168.19,473.83,168.74Zm40.32,78.69a11.37,11.37,0,0,1-2.09-.6c-6.24-5-13.42-7.21-18.52-13.11-5.45-1.43-6.81-8.48-12.54-8.65,2.34,2.9,4.24,6.46,7.16,8.65.78.57,1.86.56,2.69,1.19,1.54,1.14,2.63,3.05,4.18,4.17.86.62,2.07,1.22,3,1.79,5.22,3.23,11.82,7.75,17.62,8.94.32,0,.76-.14.3-.3A16.21,16.21,0,0,1,514.15,247.43Zm5.38,2.68c-1.18.48-2-.59-2.39.6,2.89,0,5.51,2.59,9.26,2.68C525.56,250.84,521.26,251.76,519.53,250.11Z"/><path class="cls-8" d="M423.11,228c0,7.48-3.6,13.72-19.07,13.72a65.65,65.65,0,0,1-41.77-15.22C347.84,215,337,191.32,331.6,175.6c0,21,2.06,40.66,2.06,55.62,0,7.24-3.87,10.48-10.06,10.48-9.53,0-22.42-8-23.45-16-2.58-20-3.61-47.64-3.61-75.83,0-26.19.77-52.88,1.8-74.08-10.83-2.49-24-15-24-22.2,0-6.23,32.48-14.46,68.83-14.46,33.51,0,68.57,9.47,68.57,48.14,0,45.14-36.09,68.34-44.08,72.08.51,5.74,4.38,27.93,13.92,39.91,20.62,25.69,40.22,20.95,41.5,27.43ZM336.49,72.34c-2.32,23-3.6,44.15-4.12,73.08,13.92-5.49,48.47-30.18,49.75-62.6C382.12,70.84,354.28,72.34,336.49,72.34Z"/><path d="M108.92,356h-2.61c-.42-2.62-.28-17.76-.28-23.82C100.52,347.64,88.13,358,64,358c-31.26,0-48.61-23.27-48.61-50.53,0-30.16,20.24-52.05,49.57-52.05,23.13,0,38.69,10.19,44.47,28.78h-3C100.66,266.54,85,258,64.72,258c-27.81,0-46.26,21.06-46.26,49.43,0,25.61,16.66,47.91,45.71,47.91,25.06,0,41.86-12.53,41.86-39.52v-6.74H64.45v-2.62h44.47Z"/><path d="M146,316.94,129,356h-3l43.1-98.72h2.61L214.39,356h-3.17l-16.94-39.1Zm47.22-2.62c-14.32-33.46-21.2-48.74-22.72-53.56h-.13c-1.1,3.31-11.43,26.57-23.13,53.56Z"/><path d="M232.42,257.32h2.9v96.1h61.13l-.69,2.62H232.42Z"/><path d="M313.66,257.32h2.89v96.1h61.13L377,356H313.66Z"/><path d="M459.18,304.54h-61.4v48.88h66.91L464,356H394.89V257.32h67.19v2.62h-64.3v42h61.4Z"/><path d="M486.17,307.3V356h-2.89V257.32H523.9c16.66,0,29.32,8.54,29.32,24.64,0,13.08-6.74,21.76-22,24.1,12.94,2.48,21.21,9.09,21.21,28.09v1.24c0,11.42.27,18,1,20.65h-3c-1-4.68-1-10.88-1-20.65v-1.24c0-16.66-6.2-26.85-30.57-26.85Zm0-2.62h33.18c19.55,0,30.84-6.19,30.84-22.44,0-14.46-10.74-22.3-27.67-22.3H486.17Z"/><path d="M605.13,356V317.62a2.93,2.93,0,0,0-.42-1.65L566,257.32h3.31c12.8,19.41,33.32,50.39,37.17,56.31,4.82-6.88,26-37.86,38.69-56.31h3.31l-39.93,58.24a2.79,2.79,0,0,0-.69,1.93V356Z"/><circle class="cls-9" cx="193.53" cy="149.53" r="10.24"/><circle class="cls-9" cx="204.24" cy="136.43" r="4.29"/><circle class="cls-9" cx="213.05" cy="151.43" r="6.43"/><circle class="cls-9" cx="186.39" cy="107.14" r="10.24"/><circle class="cls-9" cx="203.77" cy="110.71" r="3.81"/><circle class="cls-9" cx="194.96" cy="125.72" r="6.43"/><circle class="cls-9" cx="185.67" cy="90.71" r="3.81"/><circle class="cls-9" cx="201.15" cy="93.33" r="6.43"/><path class="cls-10" d="M417.45,84.88c1.09,2,10.14,58.9-42.25,81.18"/><path class="cls-10" d="M428.34,95.11c1,1.86,9.26,53.83-38.61,74.19"/><path class="cls-10" d="M434.51,125c.6,1.07,5.55,31.1-23.11,42.86"/><line class="cls-11" x1="545.69" y1="97.14" x2="609.74" y2="98.1"/><line class="cls-11" x1="545.21" y1="110.48" x2="616.88" y2="111.9"/><line class="cls-11" x1="545.69" y1="124.29" x2="618.31" y2="125.71"/><line class="cls-11" x1="544.73" y1="135.72" x2="617.36" y2="137.14"/><line class="cls-11" x1="544.73" y1="149.05" x2="617.36" y2="150.48"/><line class="cls-11" x1="544.73" y1="162.38" x2="611.64" y2="163.81"/><line class="cls-11" x1="544.73" y1="177.14" x2="601.64" y2="178.57"/><path class="cls-12" d="M614.54,75.64c-2.47,0-4.95-.25-7.43-.25a171.51,171.51,0,0,0-33.94,3.72c-1.48,16.1-2.72,43.84-2.72,61.43,0,20.07.49,72.09,3.72,94.63,0,2.73-9.91,6.44-20.32,6.44-6.44,0-12.14-1.73-13.37-6.19-7.68-28.49-10.16-73.82-10.16-101.81a385.22,385.22,0,0,1,2.23-44.84c-6.69,1-14.86,3.22-23,3.22-14.12,0-24.77-13.13-24.77-24.52,0-4,1.49-7.44,4.95-8.18C526.6,50.37,554.6,41,589.28,41a179.36,179.36,0,0,1,22.54,1.24c5.45.74,7.43,8.42,7.43,16.35v2.72C619,69.2,616.77,75.64,614.54,75.64Z"/><path class="cls-8" d="M616.92,72.78c-2.47,0-4.95-.24-7.43-.24a171.36,171.36,0,0,0-33.93,3.71c-1.49,16.1-2.73,43.85-2.73,61.44,0,20.06.5,72.08,3.72,94.62,0,2.73-9.91,6.44-20.32,6.44-6.44,0-12.13-1.73-13.37-6.19-7.68-28.49-10.16-73.82-10.16-101.81a385.22,385.22,0,0,1,2.23-44.84c-6.69,1-14.86,3.22-23,3.22-14.12,0-24.77-13.13-24.77-24.52,0-4,1.49-7.43,4.95-8.18C529,47.52,557,38.1,591.66,38.1a179.36,179.36,0,0,1,22.54,1.24c5.45.74,7.43,8.42,7.43,16.35v2.73C621.38,66.34,619.15,72.78,616.92,72.78Z"/><path class="cls-12" d="M186,235.45c-7.4,0-14.28-1.28-17.09-3.83-1.53-1.53-5.35-18.87-9.94-41.05a216.83,216.83,0,0,0-42.33-4.85c-5.1,0-10,.26-14.54.51-5.61,18.11-10.2,33.41-11.47,41.31-1.28,6.38-9.44,8.67-17.85,8.67-10.45,0-18.1-3.31-18.1-8.67,0-5.86,3.31-19.89,8.41-38-4.08,0-19.12-13-19.12-24.73,0-7.91,15-8.67,29.57-10.2,17.34-54.32,41.82-120.1,50.49-126,4.59-3.31,21.42-9.18,31.37-9.43A10.54,10.54,0,0,1,161.74,21c8.16,7.65,48.45,199.66,48.45,207.05C210.19,232.64,197.44,235.45,186,235.45ZM140.07,87c-6.89,12.24-17.09,38.51-26.52,65.28,15,0,28.81,1.28,39,3.57C145.93,121,140.07,87,140.07,87Z"/><path class="cls-8" d="M187.76,236.47c-7.39,0-14.28-1.28-17.08-3.83-1.53-1.53-5.36-18.87-10-41a216.73,216.73,0,0,0-42.32-4.85c-5.1,0-10,.26-14.54.51-5.61,18.11-10.2,33.41-11.47,41.31-1.28,6.38-9.44,8.67-17.85,8.67-10.46,0-18.11-3.31-18.11-8.67,0-5.86,3.32-19.89,8.42-38-4.08,0-19.13-13-19.13-24.74,0-7.9,15.05-8.67,29.58-10.2,17.34-54.31,41.82-120.1,50.49-126,4.59-3.32,21.42-9.18,31.36-9.43A10.57,10.57,0,0,1,163.54,22C171.7,29.67,212,221.68,212,229.07,212,233.66,199.24,236.47,187.76,236.47ZM141.86,88.06c-6.88,12.24-17.08,38.51-26.51,65.28,15,0,28.81,1.28,39,3.57C147.73,122,141.86,88.06,141.86,88.06Z"/></g></svg>